HIERARCHY
ROOT joint_Root
{
	OFFSET 0.0 0.0 0.0
	CHANNELS 6 Xposition Yposition Zposition Zrotation Xrotation Yrotation 
	JOINT Hips
	{
		OFFSET -0.726466 93.3139 -2.00062
		CHANNELS 6 Xposition Yposition Zposition Zrotation Xrotation Yrotation 
		JOINT Spine
		{
			OFFSET 15.7357 0.0 0.0
			CHANNELS 6 Xposition Yposition Zposition Zrotation Xrotation Yrotation 
			JOINT Chest
			{
				OFFSET 8.98455 -0.406207 0.0
				CHANNELS 6 Xposition Yposition Zposition Zrotation Xrotation Yrotation 
				JOINT Neck
				{
					OFFSET 16.3773 0.0 0.0
					CHANNELS 6 Xposition Yposition Zposition Zrotation Xrotation Yrotation 
					JOINT Head
					{
						OFFSET 6.45672 0.0 0.0
						CHANNELS 6 Xposition Yposition Zposition Zrotation Xrotation Yrotation 
						End Site
						{
							OFFSET 0.0 0.0 0.0
						}
					}
				}
				JOINT Shoulder_L
				{
					OFFSET 12.9942 -0.242716 4.98039
					CHANNELS 6 Xposition Yposition Zposition Zrotation Xrotation Yrotation 
					JOINT UpperArm_L
					{
						OFFSET 5.34809 0.0 0.0
						CHANNELS 6 Xposition Yposition Zposition Zrotation Xrotation Yrotation 
						JOINT LowerArm_L
						{
							OFFSET 24.3286 1.87007e-05 0.0
							CHANNELS 6 Xposition Yposition Zposition Zrotation Xrotation Yrotation 
							JOINT Hand_L
							{
								OFFSET 22.2916 0.0 0.0
								CHANNELS 6 Xposition Yposition Zposition Zrotation Xrotation Yrotation 
								End Site
								{
									OFFSET 0.0 0.0 0.0
								}
							}
						}
					}
				}
				JOINT Shoulder_R
				{
					OFFSET 12.9945 -0.242716 -4.98039
					CHANNELS 6 Xposition Yposition Zposition Zrotation Xrotation Yrotation 
					JOINT UpperArm_R
					{
						OFFSET -5.34813 0.0 0.0
						CHANNELS 6 Xposition Yposition Zposition Zrotation Xrotation Yrotation 
						JOINT LowerArm_R
						{
							OFFSET -24.3289 0.000322201 0.0
							CHANNELS 6 Xposition Yposition Zposition Zrotation Xrotation Yrotation 
							JOINT Hand_R
							{
								OFFSET -22.2915 -0.000108084 0.0
								CHANNELS 6 Xposition Yposition Zposition Zrotation Xrotation Yrotation 
								End Site
								{
									OFFSET 0.0 0.0 0.0
								}
							}
						}
					}
				}
			}
		}
		JOINT UpperLeg_L
		{
			OFFSET -2.19248 -6.46944 0.0
			CHANNELS 6 Xposition Yposition Zposition Zrotation Xrotation Yrotation 
			JOINT LowerLeg_L
			{
				OFFSET 39.0811 0.0 -1.23785e-05
				CHANNELS 6 Xposition Yposition Zposition Zrotation Xrotation Yrotation 
				JOINT Foot_L
				{
					OFFSET 40.9854 0.0 -1.26872e-05
					CHANNELS 6 Xposition Yposition Zposition Zrotation Xrotation Yrotation 
					JOINT Toes_L
					{
						OFFSET 11.7543 0.0 0.0
						CHANNELS 6 Xposition Yposition Zposition Zrotation Xrotation Yrotation 
						End Site
						{
							OFFSET 0.0 0.0 0.0
						}
					}
				}
			}
		}
		JOINT UpperLeg_R
		{
			OFFSET -2.19251 6.46944 0.0
			CHANNELS 6 Xposition Yposition Zposition Zrotation Xrotation Yrotation 
			JOINT LowerLeg_R
			{
				OFFSET -39.0811 -0.00228153 -0.0401928
				CHANNELS 6 Xposition Yposition Zposition Zrotation Xrotation Yrotation 
				JOINT Foot_R
				{
					OFFSET -40.9854 0.0 0.0
					CHANNELS 6 Xposition Yposition Zposition Zrotation Xrotation Yrotation 
					JOINT Toes_R
					{
						OFFSET -11.7543 0.0 0.0
						CHANNELS 6 Xposition Yposition Zposition Zrotation Xrotation Yrotation 
						End Site
						{
							OFFSET 0.0 0.0 0.0
						}
					}
				}
			}
		}
	}
}
MOTION
Frames:	7
Frame Time:	0.0333333
0.000000 0.000000 0.000000 0.000000 0.000000 -0.000000 -0.366972 92.076100 0.176476 88.087200 -0.643768 4.629630 15.735700 0.000005 -0.000001 83.653700 85.364400 -83.202400 8.984550 -0.406207 -0.000000 1.452930 -1.049160 0.915115 16.377300 -0.000001 -0.000001 3.418230 -2.622860 0.709714 6.456720 -0.000001 -0.000000 6.207210 -2.873410 -1.299970 12.994200 -0.242716 4.980390 -90.239200 0.760262 -72.538400 5.348090 -0.000007 -0.000001 -67.705900 39.047400 -14.150400 24.328600 0.000019 0.000005 2.267020 5.210810 -23.547200 22.291600 -0.000001 0.000005 4.391140 5.462650 -5.094640 12.994500 -0.242716 -4.980390 88.108400 6.256990 -73.141300 -5.348130 -0.000001 -0.000004 -64.919800 41.753900 -16.218300 -24.328900 0.000322 -0.000009 2.498790 7.386760 -18.754000 -22.291500 -0.000108 -0.000004 5.225810 5.355800 -1.554840 -2.192480 -6.469440 -0.000000 -175.700000 -6.805190 -1.674680 39.081100 -0.000007 -0.000012 -0.107233 0.243366 23.779600 40.985400 -0.000006 -0.000013 -0.118835 2.627090 -67.670100 11.754300 -0.000000 0.000003 -0.000041 -0.000476 -16.596100 -2.192510 6.469440 -0.000001 178.826000 15.537400 -178.110000 -39.081100 -0.002282 -0.040193 -0.029279 0.090451 19.820400 -40.985400 0.000008 0.000006 3.461310 6.384740 -67.351500 -11.754300 -0.000006 -0.000006 -0.004792 -0.059437 -18.991300
0.000000 0.000000 0.000000 0.000000 0.000000 -0.000000 -0.361736 92.082900 0.148948 88.083100 -0.726332 4.631810 15.735700 0.000005 -0.000001 83.854900 85.381100 -83.412500 8.984550 -0.406207 -0.000000 1.422980 -1.012860 0.896583 16.377300 -0.000001 -0.000001 3.344060 -2.559730 0.763328 6.456720 -0.000001 -0.000000 6.179840 -2.824220 -1.166030 12.994200 -0.242716 4.980390 -90.274500 0.865238 -72.398600 5.348090 -0.000007 -0.000001 -66.133200 37.131800 -15.240900 24.328600 0.000019 0.000005 3.752540 7.946140 -25.376800 22.291600 -0.000001 0.000005 3.661620 5.454470 -4.800770 12.994500 -0.242716 -4.980390 88.056800 6.375790 -73.010500 -5.348130 -0.000001 -0.000004 -62.412900 41.658300 -17.585200 -24.328900 0.000322 -0.000009 3.684450 9.330270 -21.663800 -22.291500 -0.000108 -0.000004 2.336860 5.360210 -1.687510 -2.192480 -6.469440 -0.000000 -175.684000 -6.862410 -1.660430 39.081100 -0.000007 -0.000012 -0.109625 0.249208 23.744600 40.985400 -0.000006 -0.000013 -0.129359 2.612710 -67.640800 11.754300 -0.000000 0.000003 -0.000046 -0.000530 -16.598200 -2.192510 6.469440 -0.000001 178.862000 15.401700 -178.130000 -39.081100 -0.002282 -0.040193 -0.026426 0.082586 19.808800 -40.985400 0.000008 0.000006 3.538490 6.336970 -67.333700 -11.754300 -0.000006 -0.000006 -0.004987 -0.061336 -19.068700
0.000000 0.000000 0.000000 0.000000 0.000000 -0.000000 -0.357201 92.085800 0.057496 88.072300 -0.783071 4.704820 15.735700 0.000005 -0.000001 83.967200 85.361700 -83.525700 8.984550 -0.406207 -0.000000 1.463490 -0.998733 0.895017 16.377300 -0.000001 -0.000001 3.345060 -2.502030 0.852030 6.456720 -0.000001 -0.000000 6.027780 -2.739080 -1.110040 12.994200 -0.242716 4.980390 -90.277000 0.863971 -72.223200 5.348090 -0.000007 -0.000001 -63.434900 34.001600 -17.378200 24.328600 0.000019 0.000005 4.601260 8.672310 -28.090200 22.291600 -0.000001 0.000005 5.145990 5.452150 -4.712920 12.994500 -0.242716 -4.980390 88.052300 6.284970 -72.743500 -5.348130 -0.000001 -0.000004 -58.866900 39.945000 -20.031400 -24.328900 0.000322 -0.000009 4.578880 9.563130 -25.743000 -22.291500 -0.000108 -0.000004 2.412250 5.364070 -1.803240 -2.192480 -6.469440 -0.000000 -175.682000 -6.862670 -1.664430 39.081100 -0.000007 -0.000012 -0.108015 0.245051 23.787400 40.985400 -0.000006 -0.000013 -0.123107 2.584330 -67.605200 11.754300 -0.000000 0.000003 -0.000040 -0.000466 -16.595700 -2.192510 6.469440 -0.000001 178.872000 15.367200 -178.161000 -39.081100 -0.002282 -0.040193 -0.027179 0.084425 19.863700 -40.985400 0.000008 0.000006 3.495380 6.329250 -67.278300 -11.754300 -0.000006 -0.000006 -0.004912 -0.060613 -19.039200
0.000000 0.000000 0.000000 0.000000 0.000000 -0.000000 -0.344318 92.097900 -0.076241 88.067400 -0.775593 4.753560 15.735700 0.000005 -0.000001 83.880000 85.390300 -83.438000 8.984550 -0.406207 -0.000000 1.405030 -1.006930 0.895529 16.377300 -0.000001 -0.000001 3.467620 -2.469490 0.867475 6.456720 -0.000001 -0.000000 6.090130 -2.723950 -1.031150 12.994200 -0.242716 4.980390 -90.257500 0.798464 -72.128800 5.348090 -0.000007 -0.000001 -60.611400 28.813600 -19.886500 24.328600 0.000019 0.000005 4.570930 7.513130 -31.447600 22.291600 -0.000001 0.000005 7.172990 5.465080 -5.183330 12.994500 -0.242716 -4.980390 88.068100 6.109890 -72.416100 -5.348130 -0.000001 -0.000004 -55.179800 35.852400 -22.802700 -24.328900 0.000322 -0.000009 5.090680 8.616130 -30.746500 -22.291500 -0.000108 -0.000004 4.621890 5.359790 -1.672360 -2.192480 -6.469440 -0.000000 -175.682000 -6.906490 -1.724160 39.081100 -0.000007 -0.000012 -0.108389 0.245724 23.802500 40.985400 -0.000006 -0.000013 -0.101387 2.617480 -67.512700 11.754300 -0.000000 0.000003 -0.000044 -0.000502 -16.597100 -2.192510 6.469440 -0.000001 178.878000 15.373900 -178.225000 -39.081100 -0.002282 -0.040193 -0.027536 0.085292 19.889800 -40.985400 0.000008 0.000006 3.501160 6.336650 -67.193300 -11.754300 -0.000006 -0.000006 -0.004991 -0.061375 -19.070300
0.000000 0.000000 0.000000 0.000000 0.000000 -0.000000 -0.328134 92.108800 -0.200814 88.065800 -0.800739 4.820080 15.735700 0.000005 -0.000001 83.544600 85.448200 -83.092000 8.984550 -0.406207 -0.000000 1.284390 -1.048630 0.916160 16.377300 -0.000001 -0.000001 3.718720 -2.485430 0.878538 6.456720 -0.000001 -0.000000 6.220360 -2.646820 -1.055040 12.994200 -0.242716 4.980390 -90.197600 0.611086 -72.083200 5.348090 -0.000007 -0.000001 -57.740300 22.749300 -22.747600 24.328600 0.000019 0.000005 4.597140 6.456830 -35.562900 22.291600 -0.000001 0.000005 9.551240 5.480890 -5.771150 12.994500 -0.242716 -4.980390 88.125100 5.836110 -72.154600 -5.348130 -0.000001 -0.000004 -51.561100 30.183200 -26.040000 -24.328900 0.000322 -0.000009 5.621060 7.747370 -36.136200 -22.291500 -0.000108 -0.000004 7.096820 5.358630 -1.640730 -2.192480 -6.469440 -0.000000 -175.691000 -6.952280 -1.756130 39.081100 -0.000007 -0.000012 -0.106657 0.241650 23.815200 40.985400 -0.000006 -0.000013 -0.087184 2.605400 -67.426000 11.754300 -0.000000 0.000003 -0.000041 -0.000479 -16.596200 -2.192510 6.469440 -0.000001 178.872000 15.327900 -178.242000 -39.081100 -0.002282 -0.040193 -0.028397 0.087679 19.888300 -40.985400 0.000008 0.000006 3.420830 6.335940 -67.096900 -11.754300 -0.000006 -0.000006 -0.004967 -0.061150 -19.061100
0.000000 0.000000 0.000000 0.000000 0.000000 -0.000000 -0.307670 92.112000 -0.310578 88.035900 -0.824822 4.904040 15.735700 0.000005 -0.000001 83.157700 85.500900 -82.671000 8.984550 -0.406207 -0.000000 1.173260 -1.099550 0.983803 16.377300 -0.000001 -0.000001 3.928740 -2.436710 0.869361 6.456720 -0.000001 -0.000000 6.401230 -2.592120 -1.135230 12.994200 -0.242716 4.980390 -90.109200 0.339411 -72.163600 5.348090 -0.000007 -0.000001 -54.858000 16.341300 -25.937700 24.328600 0.000019 0.000005 5.779100 6.875090 -40.208400 22.291600 -0.000001 0.000005 12.793100 5.501550 -6.580920 12.994500 -0.242716 -4.980390 88.239700 5.412560 -71.953800 -5.348130 -0.000001 -0.000004 -48.073400 23.674400 -29.828400 -24.328900 0.000322 -0.000009 7.268600 8.220470 -41.732900 -22.291500 -0.000108 -0.000004 9.794700 5.351030 -1.413720 -2.192480 -6.469440 -0.000000 -175.663000 -7.032570 -1.786980 39.081100 -0.000007 -0.000012 -0.105159 0.237420 23.889800 40.985400 -0.000006 -0.000013 -0.052496 2.659470 -67.384700 11.754300 -0.000000 0.000003 -0.000039 -0.000459 -16.595400 -2.192510 6.469440 -0.000001 178.880000 15.293100 -178.255000 -39.081100 -0.002282 -0.040193 -0.030898 0.094437 19.918200 -40.985400 0.000008 0.000006 3.334950 6.357860 -67.016700 -11.754300 -0.000006 -0.000006 -0.005091 -0.062347 -19.109900
0.000000 0.000000 0.000000 0.000000 0.000000 -0.000000 -0.278569 92.124800 -0.388711 88.046300 -0.872853 4.983860 15.735700 0.000005 -0.000001 82.971800 85.555100 -82.473100 8.984550 -0.406207 -0.000000 1.062370 -1.116470 1.006960 16.377300 -0.000001 -0.000001 4.000290 -2.447490 0.947407 6.456720 -0.000001 -0.000000 6.629760 -2.522380 -1.214180 12.994200 -0.242716 4.980390 -89.988400 -0.036293 -72.249000 5.348090 -0.000007 -0.000001 -52.724600 9.230960 -29.150900 24.328600 0.000019 0.000005 7.303230 7.304600 -45.223300 22.291600 -0.000001 0.000005 16.055800 5.520190 -7.359900 12.994500 -0.242716 -4.980390 88.392900 4.909510 -71.849200 -5.348130 -0.000001 -0.000004 -45.340500 16.351100 -33.548700 -24.328900 0.000322 -0.000009 9.421870 8.816730 -47.270600 -22.291500 -0.000108 -0.000004 12.860700 5.341760 -1.135970 -2.192480 -6.469440 -0.000000 -175.702000 -6.958290 -1.728050 39.081100 -0.000007 -0.000012 -0.104788 0.237166 23.837400 40.985400 -0.000006 -0.000013 -0.048109 2.576320 -67.314100 11.754300 -0.000000 0.000003 -0.000038 -0.000441 -16.594700 -2.192510 6.469440 -0.000001 178.842000 15.267500 -178.226000 -39.081100 -0.002282 -0.040193 -0.030106 0.092339 19.900500 -40.985400 0.000008 0.000006 3.331150 6.385100 -66.945800 -11.754300 -0.000006 -0.000006 -0.004954 -0.061016 -19.055700
